<?xml version="1.0" encoding="UTF-8" standalone="no"?>
<svg
   viewBox="0 0 32 32"
   id="Crab--Streamline-Twemoji"
   height="32"
   width="32"
   version="1.1"
   xmlns="http://www.w3.org/2000/svg">
  <defs
     id="defs18" />
  <desc
     id="desc1">
    Crab Streamline Emoji: https://streamlinehq.com
  </desc>
  <path
     fill="#e1e8ed"
     d="m 26.678473,10.578632 c -0.383635,0 -0.747493,0.06981 -1.099867,0.167551 0.177444,-0.432085 0.278445,-0.903563 0.278445,-1.3996837 0,-2.0412295 -1.655163,-3.6963948 -3.696393,-3.6963948 -0.837011,0 -1.59934,0.2883365 -2.218677,0.7565468 C 19.362042,4.086137 17.268256,2.36442 14.767867,2.36442 12.43671,2.36442 10.459514,3.861084 9.731718,5.9433849 9.11733,5.7527826 8.463462,5.6501045 7.7857873,5.6501045 c -3.6290031,0 -6.5713673,2.9423632 -6.5713673,6.5713685 0,3.629845 2.9423642,6.571369 6.5713673,6.571369 H 26.678473 c 2.268798,0 4.107105,-1.838307 4.107105,-4.107106 0,-2.268798 -1.838307,-4.107104 -4.107105,-4.107104 z"
     stroke-width="0.6902"
     id="path2-8-1"
     style="fill:#dd2e44;fill-opacity:1;stroke:#be1931;stroke-width:2.42884;stroke-dasharray:none;stroke-opacity:1" />
  <g
     id="g19"
     transform="matrix(1.11049,0,0,1.11049,14.496583,-47.900848)">
    <path
       fill="#a0041e"
       d="m -12.232311,58.838949 c -0.340444,0.760889 8.89e-4,1.653333 0.761778,1.992889 0.760889,0.340444 1.6533332,-0.0018 1.9937782,-0.762667 0.338666,-0.76 2.356444,-4.988444 1.595555,-5.328 -0.76,-0.339555 -4.0115552,3.337778 -4.3511112,4.097778 z"
       stroke-width="0.8889"
       id="path3-1" />
    <path
       fill="#a0041e"
       d="m -11.480311,60.47806 c 1.085334,-2.627556 7.4142222,2.969778 7.8248892,5.583111 0.410667,2.612445 -0.273778,3.734222 -0.616889,4 -0.343111,0.265778 0.128,-1.275555 -1.055111,-2.938667 -0.936,-1.317333 -6.9031112,-4.830222 -6.1528892,-6.644444 z"
       stroke-width="0.8889"
       id="path4-7" />
  </g>
  <path
     fill="#be1931"
     d="m 15.573167,19.292995 c 9.871022,0 -9.8710224,0 0,0 z M 2.07257,19.072871 C -1.0397638,18.536874 1.7191865,27.10887 3.9312829,29.041617 6.1423928,30.974362 8.528218,30.933892 8.980311,30.769045 9.432404,30.6042 7.8214537,28.207516 7.2528828,26.644933 6.9636613,25.85229 4.2205044,19.443034 2.07257,19.072871 Z"
     stroke-width="0.987115"
     id="path6-1" />
  <g
     id="g18"
     transform="matrix(0.91665789,0,0,0.91665789,1.6545689,6.3611012)">
    <path
       fill="#a0041e"
       d="m 30.916966,14.277878 c -1.206239,-2.917874 -8.23342,3.297909 -8.690448,6.199989 -0.455054,2.901094 0.305015,4.146817 0.685049,4.44196 0.381022,0.295144 -0.142142,-1.416491 1.17169,-3.26336 1.040406,-1.462885 7.665836,-5.363913 6.833709,-7.378589 z"
       stroke-width="0.987115"
       id="path5-1" />
    <path
       d="m 31.371727,13.610369 c 0.379046,0.84496 -9.88e-4,1.83601 -0.845947,2.213084 -0.845947,0.378059 -1.836997,-0.002 -2.215058,-0.846934 -0.376085,-0.843973 -2.61582,-5.5396176 -1.770861,-5.9166912 0.843973,-0.3770724 4.454792,3.7065692 4.831866,4.5505412 z"
       style="fill:#a0041e;stroke-width:0.987115"
       id="path1-2" />
    <path
       d="m 30.390539,14.181869 c 3.111346,-0.535997 -0.613214,7.311051 -2.824324,9.243797 -2.21111,1.932746 -3.629351,2.617223 -4.082431,2.452377 -0.45308,-0.164846 1.158857,-2.56153 1.727428,-4.124113 0.289222,-0.792643 3.031392,-7.201898 5.179327,-7.572061 z"
       style="fill:#be1931;stroke-width:0.987115"
       id="path1-3" />
  </g>
</svg>
